/* XPM */
static char *_e53fe092b534b75be6894072d2905eeZh1ur7vI16WB9nf2[] = {
/* columns rows colors chars-per-pixel */
"32 32 5 1 ",
"  c None",
". c black",
"X c #494949",
"o c #808080",
"O c gray80",
/* pixels */
"...oooooooooooooooooooooooooX...",
"...oooooooooooooooooooooooooX...",
"...oooooooooooooooooooooooooX...",
"...oooooooooooooooooooooooooX...",
"...oooooooooooooooooooooooooX...",
"...oooooooooooooooooooooooooX...",
"...oooooooooooooooooooooooooX...",
"...oooooooooooooooooooooooooX...",
"...oooooooooooooooooooooooooX...",
"...oooooooooooooooooooooooooX...",
"...oooooooooooooooooooooooooX...",
"...oooooooooooooooooooooooooX...",
"...oooooooooooooooooooooooooX...",
"...oooooooooooooooooooooooooX...",
"...oooooooooooooooooooooooooX...",
"...oooooooooooooooooooooooooX...",
"...oooooooooooooooooooooooooX...",
"...oooooooooooooooooooooooooX...",
"...oooooooooooooooooooooooooX...",
"...oooooooooooooooooooooooooX...",
"...oooooooooooooooooooooooooX...",
"...oooooooooooooooooooooooooX...",
"...oooooooooooooooooooooooooX...",
"...oooooooooooooooooooooooooX...",
"...oooooooooooooooooooooooooX...",
"...oooooooooooooooooooooooooX...",
"...oooooooooooooooooooooooooX...",
"...oooooooooooooooooooooooooX...",
"...oooooooooooooooooooooooooX...",
"...oooooooooooooooooooooooooX...",
"...oooooooooooooooooooooooooX...",
"...oooooooooooooooooooooooooX..."
};
