/* XPM */
static char *_1d2336376f04c08875e14d16b142088vVIEzUEXJf5epM9J[] = {
/* columns rows colors chars-per-pixel */
"32 32 7 1 ",
"  c None",
". c black",
"X c gray20",
"o c #494949",
"O c #808080",
"+ c gray80",
"@ c white",
/* pixels */
"  ............................  ",
" .@+++++++++++++++++++++++++++. ",
".@OOOOOOOOOOOOOOOOOOOOOOOOOOOOo.",
".+OOOOOOOOOOOOOOOOOOOOOOOOOOOOo.",
".+OOOOOOOOOOOOOOOOOOOOOOOOOOOOo.",
".+OOOOOOOOOOOOOOOOOOOOOOOOOOOOo.",
".+OOOOOOOOOOOOOOOOOOOOOOOOOOOOo.",
".+OOOOOOOOOOOOOOOOOOOOOOOOOOOOo.",
".+OOOOOOOOOOOOOOOOOOOOOOOOOOOOo.",
".+OOOOOOOOOOOOOOOOOOOOOOOOOOOOo.",
".+OOOOOOOOOOOOOOOOOOOOOOOOOOOOo.",
".+OOOOOOOOOOOOOOOOOOOOOOOOOOOOo.",
".+OOOOOOOOOOOOOOOOOOOOOOOOOOOOo.",
".+OOOOOOOOOOOOOOOOOOOOOOOOOOOOo.",
".+OOOOOOOOOOOOOOOOOOOOOOOOOOOOo.",
".+OOOOOOOOOOOOOOOOOOOOOOOOOOOOo.",
".+OOOOOOOOOOOOOOOOOOOOOOOOOOOOo.",
".+OOOOOOOOOOOOOOOOOOOOOOOOOOOOo.",
".+OOOOOOOOOOOOOOOOOOOOOOOOOOOOo.",
".+OOOOOOOOOOOOOOOOOOOOOOOOOOOOo.",
".+OOOOOOOOOOOOOOOOOOOOOOOOOOOOo.",
".+OOOOOOOOOOOOOOOOOOOOOOOOOOOOo.",
".+OOOOOOOOOOOOOOOOOOOOOOOOOOOOo.",
".+OOOOOOOOOOOOOOOOOOOOOOOOOOOOo.",
".+OOOOOOOOOOOOOOOOOOOOOOOOOOOOo.",
".+OOOOOOOOOOOOOOOOOOOOOOOOOOOOo.",
".+OOOOOOOOOOOOOOOOOOOOOOOOOOOOo.",
".+OOOOOOOOOOOOOOOOOOOOOOOOOOOOo.",
".XooooooooooooooooooooooooooooX.",
".XXXXXXXXXXXXXXXXXXXXXXXXXXXXXX.",
" .XXXXXXXXXXXXXXXXXXXXXXXXXXXX. ",
"  ............................  "
};
