/* XPM */
static char *result[] = {
/* columns rows colors chars-per-pixel */
"32 32 13 1 ",
"  c black",
". c gray4",
"X c #191919",
"o c gray20",
"O c #434343",
"+ c gray30",
"@ c gray32",
"# c #6D6D6D",
"$ c #7E7E7E",
"% c #FFE879",
"& c gray70",
"* c gray80",
"= c white",
/* pixels */
"OOOOOOOOOOOOOOOOX#OOOOOOOOOOOOOO",
"OOOOOOOOOOOOOOOOX#OOOOOOOOOOOOOO",
"OOOOOOOOOOOOOOOO.#OOOOOOOOOOOOOO",
"OOOOOOOOOOOOOOOoXoOOOOOOOOOOOOOO",
"X....X.XXXXXXXXXXXXXXXXXXXXX....",
"####...################oXo######",
"@@@.==%.@@@@@@@@@@@@@@@@X#@@@@@@",
"@@@.%%%.@@@@@@@@@@@@.....#@@@@@@",
"@@.oooo.@@@@.........++++.@@@@@@",
"@@.=***.@@@.=********.ooo.@@@@@@",
"XX.**&&.XX.=*&&&&&&&&$.oo.XXXXXX",
"##.*&&&.##.*&&&&&&&&&$.oo.######",
"OO.*&&&....*&&&&&&&&&$.oo.OOOOOO",
"OO.*=*****o*&&&&&&&&&$o**.OOOOOO",
"OO.=*&&&&&o*&&&&&&&&&$o&&&.OOOOO",
"OO.*&&&&&&o*&&&&&&&&$$o&&&&.OOOO",
"OO.*&&&&&&o+$$$$$$$$$+o&&&&$.OOO",
"XX.*&&&&&&o+++++++++++o&&&&$.XXX",
"##.*&&&&&&o+++++++++++o&&&$$.###",
"@@.+$$$$$$$o+++++++++o$$$$$+.@@@",
"@@@.++++++++ooooooooo+++++++.@@@",
"@@@@.+++++++++++++++++++++++.@@@",
"@@@@@.++++++++++++++++++o+++.@@@",
"XXXXXX +oooooo          o+++.XXX",
"#####o +ooooo ########## +++ ###",
"@@@@@@.+ooooo.@@@@@@@@@@ +++.@@@",
"@@@@@@.+ooooo.@@@@@@@@@@.%%.@@@@",
"@@@@@@.+ooooo.@@@@@@@@@@@..@@@@@",
"@@@@@oX......@@@@@@@@@@@@@@@@@@@",
"XXXXXXXXXXXXXXXXXXXXXXXXXXXXXXXX",
"###############oXo##############",
"OOOOOOOOOOOOOOOOX#OOOOOOOOOOOOOO"
};
