/* XPM */
static char *result[] = {
/* columns rows colors chars-per-pixel */
"32 32 14 1 ",
"  c black",
". c gray4",
"X c #191919",
"o c gray15",
"O c gray20",
"+ c #434343",
"@ c gray30",
"# c gray32",
"$ c #6D6D6D",
"% c #7E7E7E",
"& c #FFE879",
"* c gray70",
"= c gray80",
"- c white",
/* pixels */
"++++++++++++++++X$++++++++++++++",
"++++++++++++++++X$++++++++++++++",
"++++++++++++............++++++++",
"+++++++++++.@====-====-O..++++++",
"X....X.XXX.@%****=-**==O&-.X....",
"$$$$$$$$$.@@%*****=***=O&-.$$$$$",
"####...  @@@%*****=***=O&&.#####",
"###.@@@@@@@@%*****=.......######",
"###.OOOOO@@@%*****=.####X$######",
"###.OOOOO@@@%*****=.###OoO######",
"XXX.OOOOO@@@%OOOOOO...XXoXXXXXXX",
"$$$.OOOOO@@@O@@@=====-.$$$$$$$$$",
"+++.OOOOO@@O@@@%*****=-.++++++++",
"++++... O@@O@@@%******=.++++++++",
"++++++X$ @@O@@@%******=.++++++++",
"++++++X$ @@O@@@%******=.++++++++",
"+++++OXO @@O@@@%******=.++++++++",
"XXXXXXXX @@O@@@%******=.XXXXXXXX",
"$$$$$$$$ @@O@@@%******=.XO$$$$$$",
"######## @@O@@@%******=.X$######",
"######## @@O@@@%%*****=..$######",
"######## @@@O@@@%%%%%%.@.$######",
"######## @@@%OOOOOO...O@.O######",
"XXXXXXXX @@@%*****=OOOO@.XXXXXXX",
"$$$$$.  OO@@%*****=OOOO@.$$$$$$$",
"####.&@@@@@@%*****......########",
"####.&@@@@@@%%***.##############",
"#####.@@@@@@@%%%.###############",
"#####O. ........################",
"XXXXXXXXXXXXXXXXXXXXXXXXXXXXXXXX",
"$$$$$$$$$$$$$$$OXO$$$$$$$$$$$$$$",
"++++++++++++++++X$++++++++++++++"
};
