/* XPM */
static char *result[] = {
/* columns rows colors chars-per-pixel */
"32 32 13 1 ",
"  c black",
". c gray4",
"X c #191919",
"o c gray15",
"O c gray20",
"+ c #434343",
"@ c gray30",
"# c gray32",
"$ c #6D6D6D",
"% c #7E7E7E",
"& c gray70",
"* c gray80",
"= c white",
/* pixels */
"++++++++++++++++X$++++++++++++++",
"++++++++++++++++X$++++++++++++++",
"++++++++++........++++++++++++++",
"+++++++++.@@@****=.+++++++++++++",
"X....X.XX.@@%&&&&*=.XXXXXXXX....",
"$$$$$$$$$.@@%&&&&&*.$$$OXO$$$$$$",
"######## @@@%&&&&&*.####X$######",
"####### @@@@%&&&&&*.####o$######",
"####### @@@@%&&&&&*.####X$######",
"####### @@@@%OOOOOO...#OoO######",
"XXXXXXX @@@@O@@@*****=.XoXXXXXXX",
"$$$$$OX @@@O@@@%&&&&&*=.$$$$$$$$",
"++++++X @@@O@@@%&&&&&&*.++++++++",
"++++++. @@@O@@@%&&&&&&*.++++++++",
"++++++X @@@O@@@%&&&&&&*.++++++++",
"++++++X @@@O@@@%&&&&&&*.++++++++",
"+++++OX @@@O@@@%&&&&&&*.++++++++",
"XXXXXXX @@@O@@@%&&&&&&*.XXXXXXXX",
"$$$$$$$ @@@O@@@%&&&&&&*.XO$$$$$$",
"####### @@@O@@@%%&&&&&*.X$######",
"####### @@@@O@@@%%%%%%.#X$######",
"####### @@@@%OOOOOO...##X$######",
"####### @@@@%&&&&&*.###OXO######",
"XXXXXXX @@@@%&&&&&*.XXXXXXXXXXXX",
"$$$$$OXO @@@%&&&&&*.$$$$$$$$$$$$",
"######X$#.@@%&&&&&*.############",
"######X$#.@@%&&&&&*.############",
"######X$#.@@@%%%%%.#############",
"#####OXO##........##############",
"XXXXXXXXXXXXXXXXXXXXXXXXXXXXXXXX",
"$$$$$$$$$$$$$$$OXO$$$$$$$$$$$$$$",
"++++++++++++++++X$++++++++++++++"
};
