/* XPM */
static char *result[] = {
/* columns rows colors chars-per-pixel */
"32 32 13 1 ",
"  c black",
". c gray4",
"X c #191919",
"o c gray20",
"O c #434343",
"+ c gray30",
"@ c gray32",
"# c #6D6D6D",
"$ c #7E7E7E",
"% c #FFE879",
"& c gray70",
"* c gray80",
"= c white",
/* pixels */
"OOOOOOOOOOOOOOOOX#OOOOOOOOOOOOOO",
"OOOOOOOOOOOOOOOOX#OOOOOOOOOOOOOO",
"OOOOOO............OOOOOOOOOOOOOO",
"OOOOO.+++++++***=..OOOOOOOOOOOOO",
"X....%++++++$&&&&=..XXXXXXXX....",
"####.%++++++$&&&&&=.....Xo######",
"@@@@@.  oo++$&&&&&*+++++.#@@@@@@",
"@@@@@@@@ +++$&&&&&*oooo+.#@@@@@@",
"@@@@@@@@ +++$oooooo...o+.#@@@@@@",
"@@@@@@@@ +++o+++*****=.+.o@@@@@@",
"XXXXXXXX ++o+++$&&&&&*=..XXXXXXX",
"#####oXo ++o+++$&&&&&&*.########",
"OOOOOOX# ++o+++$&&&&&&*.OOOOOOOO",
"OOOOOO.# ++o+++$&&&&&&*.OOOOOOOO",
"OOOOOOX# ++o+++$&&&&&&*.OOOOOOOO",
"OOOOOOX# ++o+++$&&&&&&*.OOOOOOOO",
"OOOOOoXo ++o+++$&&&&&&*.OOOOOOOO",
"XXXX... o++o+++$&&&&&&*.XXXXXXXX",
"###.++++o++o+++$$&&&&&*.Xo######",
"@@@.ooooo+++o+++$$$$$$.@X#@@@@@@",
"@@@.ooooo+++$oooooo...@@X#@@@@@@",
"@@@.ooooo+++$&&&&&*.@@@@X#@@@@@@",
"@@@.ooooo+++$&&&&&*.@@@oXo@@@@@@",
"XXX.ooooo+++$&&&&&*.......XXXXXX",
"####...  +++$&&&&&****=o%=.#####",
"@@@@@@X#@.++$&&&&&*&&**o%=.@@@@@",
"@@@@@@X#@..+$$&&&&*&&&*o%%.@@@@@",
"@@@@@@X#@@..+$$$$$*$$$*o..@@@@@@",
"@@@@@oXo@@@.............@@@@@@@@",
"XXXXXXXXXXXXXXXXXXXXXXXXXXXXXXXX",
"###############oXo##############",
"OOOOOOOOOOOOOOOOX#OOOOOOOOOOOOOO"
};
