/* XPM */
static char *result[] = {
/* columns rows colors chars-per-pixel */
"32 32 13 1 ",
"  c black",
". c gray4",
"X c #191919",
"o c gray20",
"O c #434343",
"+ c gray30",
"@ c gray32",
"# c #6D6D6D",
"$ c #7E7E7E",
"% c #FFE879",
"& c gray70",
"* c gray80",
"= c white",
/* pixels */
"OOOOOOOOOOOOOOOOX#OOOOOOOOOOOOOO",
"OOOOOOOOOOOOOOOOX#OOOOOOOOOOOOOO",
"OOOOOOOOOOOOOOOO.#OOOOOOOOOOOOOO",
"OOOOOOOOOO...........OOOOOOOOOOO",
"X....X.XX.o*&*$$$$$++.XXXXXX....",
"########.%o*&*&&&&$$++.oXo######",
"@@@@@@@@.=o*&*&&&&&$++.@X#@@@@@@",
"@@@@@@@@.=o=**&&&&&$+++  .@@@@@@",
"@@@@@@@@@....*&&&&&$+++ooo.@@@@@",
"@@@@@@@@@@@@.*&&&&&$+++ooo.@@@@@",
"XXXXXXXXXX...oooooo$+++ooo.XXXXX",
"#####oXo#.$$$$$$+++o+++ooo.#####",
"OOOOOOX#.*&&&&&$$+++o++ooo.OOOOO",
"OOOOOO.#.*&&&&&&$+++o++o++.OOOOO",
"OOOOOOX#.*&&&&&&$+++o++o .OOOOOO",
"OOOOOOX#.*&&&&&&$+++o++ OOOOOOOO",
"OOOOOoXo.*&&&&&&$+++o++ OOOOOOOO",
"XXXXXXXX.*&&&&&&$+++o++ XXXXXXXX",
"########.*&&&&&&$+++o++ Xo######",
"@@@@@@@@.*&&&&&&$+++o++ X#@@@@@@",
"@@@@@@@@.=*&&&&&$+++o++ X#@@@@@@",
"@@@@@@@@@.=*****+++o+++ X#@@@@@@",
"@@@@@@@@@....oooooo$+++ Xo@@@@@@",
"XXXXXXXXX.+oo*&&&&&$+++ XXXXXXXX",
"#####oXo#.+oo*&&&&&$+++ ########",
"@@@@@@X#@.+++*&&&&&$++o .@@@@@@@",
"@@@@@@X#@@...*&&&&&$++++%.@@@@@@",
"@@@@@@X#@@@@.=*&&&&$++++%.@@@@@@",
"@@@@@oXo@@@@@.=****+++++.@@@@@@@",
"XXXXXXXXXXXXXX..........XXXXXXXX",
"###############oXo##############",
"OOOOOOOOOOOOOOOOX#OOOOOOOOOOOOOO"
};
