/* XPM */
static char *result[] = {
/* columns rows colors chars-per-pixel */
"32 32 13 1 ",
"  c black",
". c gray4",
"X c #191919",
"o c gray20",
"O c #434343",
"+ c gray30",
"@ c gray32",
"# c #6D6D6D",
"$ c #7E7E7E",
"% c #FFE879",
"& c gray70",
"* c gray80",
"= c white",
/* pixels */
"OOOOOOOOOOOOOOOOX#OOOOOOOOOOOOOO",
"OOOOOOOOOOOOOOOOX#OOOOOOOOOOOOOO",
"OOOOOOOOOOOOOOOO.#OOOOOOOOOOOOOO",
"OOOOOOOO.............OOOOOOOOOOO",
"X....X..o*$$$*$$$$$+..XXXXXX....",
"#####.%%o*&&&*&&&&$$+..oXo######",
"@@@@@.=%o**&&*&&&&&$++.@X#@@@@@@",
"@@@@@.=%o=****&&&&&$+++  ...@@@@",
"@@@@@@.......*&&&&&$+++ooooo.@@@",
"@@@@@@@@@@@@.*&&&&&$+++ooooo.@@@",
"XXXXXXXXXXXX.*&&&&&$+++ooooo.XXX",
"#####oXo##...oooooo$+++ooooo.###",
"OOOOOOX#O.$$$$$$+++o+++ooooo.OOO",
"OOOOOO.#.*&&&&&$$+++o++o++++.OOO",
"OOOOOOX#.*&&&&&&$+++o++o ...OOOO",
"OOOOOOX#.*&&&&&&$+++o++ OOOOOOOO",
"OOOOOoXo.*&&&&&&$+++o++ OOOOOOOO",
"XXXXXXXX.*&&&&&&$+++o++ XXXXXXXX",
"########.*&&&&&&$+++o++ Xo######",
"@@@@@@@@.*&&&&&&$+++o++ X#@@@@@@",
"@@@@@@@@.*&&&&&&$+++o++ X#@@@@@@",
"@@@@@@@..=*&&&&&$+++o++ X#@@@@@@",
"@@@@@@@.+.=*****+++o+++ Xo@@@@@@",
"XXXXXXX.+o...oooooo$+++ XXXXXXXX",
"#####oX.+oooo*&&&&&$+++ ########",
"@@@@@@X.+++++*&&&&&$++oo  .@@@@@",
"@@@@@@X#.....=&&&&&$++++++%.@@@@",
"@@@@@@X#@@@@..=&&&&$++++++%.@@@@",
"@@@@@oXo@@@@@..=***+++++++.@@@@@",
"XXXXXXXXXXXXXX............XXXXXX",
"###############oXo##############",
"OOOOOOOOOOOOOOOOX#OOOOOOOOOOOOOO"
};
