/* XPM */
static char *_b6e5048e18a471c8acf51d40a2688d3IF9BU4fWguDtKd0Z[] = {
/* columns rows colors chars-per-pixel */
"32 32 12 1 ",
"  c None",
". c black",
"X c #1A1303",
"o c #382907",
"O c #3D2D08",
"+ c gray20",
"@ c #7C5B11",
"# c gray31",
"$ c #B18218",
"% c #808080",
"& c gray80",
"* c gray99",
/* pixels */
"                                ",
"  oooooooooooooooooooooooooooo  ",
" o$$$$$o$$$$$o$$$$$o$$$$$o$$$$o ",
" o$@@@@o@@@@@o@@@@@o@@@@@o@@@@o ",
" o$@@@@o@@@@@o@++@@o@@@@@o@@@@o ",
" o$@@@@o@@@@@o+**+@o@@@@@o@@@@o ",
" o$@@@@o@@@@@o+*%+@o@@@@@o@@@@o ",
" o$@@@@o@@@@@o+&%+@o@@@@@o@@@@o ",
" o$@@@@o@@@@@o#&%#@o@@@@@o@@@@o ",
" o$@@@@o@@@@@++%%+@o@@@@@o@@@@o ",
" o$@@@@o@@@@@@++++@o@@@@@o@@@@o ",
" o$@@@@o@@@@@@@@@@+o@@@@@o@@@@o ",
" o$@@@@o@@@@+@@@@@%+@@@@@o@@@@o ",
" o$@@@@o@@@+&+@@@@+%+@@@@o@@@@o ",
" o$@@@@o@@@+%+@@@@+%+@@@@o@@@@o ",
" o$@@@@o@@@+%+@@@@+&+@@@@o@@@@o ",
" o$@@@@o@@@+#++++++#+@@@@o@@@@o ",
" o$@@@@o@@+*&&&&&&&&&+@@@o@@@@o ",
" o$@@@@o@+*%%%%%%%%%%%+@@o@@@@o ",
" o$@@@@o@+&%%%+..&&%%%+@@o@@@@o ",
" o$@@@@o@+&%%%....&%%%+@@o@@@@o ",
" o$@@@@o@+&%%%....*%%%+@@o@@@@o ",
" o$@@@@o@+&%%%%..*%%%%+@@o@@@@o ",
" o$@@@@o@+&%%%%..&%%%%+@@o@@@@o ",
" o$@@@@o@+&%%%%..&%%%%+@@o@@@@o ",
" o$@@@@o@+#%%%%%%%%%%#+@@o@@@@o ",
" o$@@@@o@+############+@@o@@@@o ",
" o$@@@@o@@+##########+@@@o@@@@o ",
" XOOOOOXO@@++++++++++@@OOXOOOOX ",
" XOOOOOXO@@@@oOOOO@o@@@OOXOOOOX ",
"  XXXXXXXXXXXXXXXXOXOOOXXXXXXX  ",
"                                "
};
