/* XPM */
static char *enemy_left[] = {
/* columns rows colors chars-per-pixel */
"32 32 14 1 ",
"  c black",
". c gray4",
"X c #191919",
"o c gray15",
"O c #6B1C1C", /* Çok koyu kırmızı gövde */
"+ c #434343",
"@ c #A0A0A0", /* Mat metalik gümüş */
"# c gray32",
"$ c #6D6D6D",
"% c #4B4B4B", /* Koyu metalik gri detaylar */
"& c #7A7A7A", /* Metalik gri kanatlar */
"* c #A9A9A9", /* Parlak metal detaylar */
"= c white",
"- c #6E6E6E", /* Koyu gri metalik detaylar */
/* pixels */
"++++++++++++++++X$++++++++++++++",
"++++++++++++++++X$++++++++++++++",
"++++++++++++++++.$++++++++++++++",
"++++++++++++++........++++++++++",
"X....X.XXXXXX.%%%%%@@@.XXXXX....",
"$$$$$$$$$$$$.*&&&&&%@@.OXO$$$$$$",
"############.*&&&&&%@@.#X$######",
"############.*&&&&&%@@@ o$######",
"############.*&&&&&%@@@@ $######",
"############.*&&&&&%@@@@ O######",
"XXXXXXXXXX...OOOOOO%@@@@ XXXXXXX",
"$$$$$OXO$.%%%%%%@@@O@@@@ $$$$$$$",
"++++++X$.*&&&&&%%@@@O@@@ +++++++",
"++++++.$.*&&&&&&%@@@O@@@ +++++++",
"++++++X$.*&&&&&&%@@@O@@@ +++++++",
"++++++X$.*&&&&&&%@@@O@@@ +++++++",
"+++++OXO.*&&&&&&%@@@O@@@ +++++++",
"XXXXXXXX.*&&&&&&%@@@O@@@ XXXXXXX",
"$$$$$$$$.*&&&&&&%@@@O@@@ O$$$$$$",
"########.*&&&&&&%@@@O@@@ $######",
"########.=*&&&&&%@@@O@@@ $######",
"#########.=*****@@@O@@@@ $######",
"##########...OOOOOO%@@@@ O######",
"XXXXXXXXXXXX.*&&&&&%@@@@ XXXXXXX",
"$$$$$OXO$$$$.*&&&&&%@@@@ $$$$$$$",
"######X$####.*&&&&&%@@@ ########",
"######X$####.*&&&&&%@@.#########",
"######X$####.=*&&&&%@@.#########",
"#####OXO#####.=****@@@.#########",
"XXXXXXXXXXXXXX........XXXXXXXXXX",
"$$$$$$$$$$$$$$$OXO$$$$$$$$$$$$$$",
"++++++++++++++++X$++++++++++++++"
};
