/* XPM */
static char *c096a2ae92ed46d3910cea159b4d868c7A2SxgGFJwWDspeu[] = {
/* columns rows colors chars-per-pixel */
"32 32 12 1 ",
"  c None",
". c #382907",
"X c #B18218",
"o c #7C5B11",
"O c gray20",
"+ c gray99",
"@ c #808080",
"# c gray31",
"$ c gray80",
"% c black",
"& c #1A1303",
"* c #3D2D08",
/* pixels */
"                                ",
"  ............................  ",
" .XXXXX.XXXXX.XXXXX.XXXXX.XXXX. ",
" .Xoooo.ooooo.ooooo.ooooo.oooo. ",
" .Xoooo.ooooo.oOOoo.ooooo.oooo. ",
" .Xoooo.ooooo.O++Oo.ooooo.oooo. ",
" .Xoooo.ooooo.O+@Oo.ooooo.oooo. ",
" .Xoooo.oooooO#$@#O.ooooo.oooo. ",
" .Xoooo.ooooO+O$@O@Oooooo.oooo. ",
" .Xoooo.oooO$OO@@OO@Ooooo.oooo. ",
" .Xoooo.oooO@OoOOoO@Ooooo.oooo. ",
" .Xoooo.oooO@OooooO$Ooooo.oooo. ",
" .Xoooo.oooO#OOOOOO#Ooooo.oooo. ",
" .Xoooo.ooO+$$$$$$$$$Oooo.oooo. ",
" .Xoooo.oO+@@@@@@@@@@@Ooo.oooo. ",
" .Xoooo.oO$@@@O%%$$@@@Ooo.oooo. ",
" .Xoooo.oO$@@@%%%%$@@@Ooo.oooo. ",
" .Xoooo.oO$@@@%%%%+@@@Ooo.oooo. ",
" .Xoooo.oO$@@@@%%+@@@@Ooo.oooo. ",
" .Xoooo.oO$@@@@%%$@@@@Ooo.oooo. ",
" .Xoooo.oO$@@@@%%$@@@@Ooo.oooo. ",
" .Xoooo.oO#@@@@@@@@@@#Ooo.oooo. ",
" .Xoooo.oO############Ooo.oooo. ",
" .Xoooo.ooO##########Oooo.oooo. ",
" .Xoooo.oooOOOOOOOOOOoooo.oooo. ",
" .Xoooo.ooooo.ooooo.ooooo.oooo. ",
" .Xoooo.ooooo.ooooo.ooooo.oooo. ",
" .Xoooo.ooooo.ooooo.ooooo.oooo. ",
" &*****&*****&*****&*****&****& ",
" &*****&*****&*****&*****&****& ",
"  &&&&&&&&&&&&&&&&&&&&&&&&&&&&  ",
"                                "
};
