/* XPM */
static char *result[] = {
/* columns rows colors chars-per-pixel */
"32 32 14 1 ",
"  c black",
". c gray4",
"X c #191919",
"o c gray15",
"O c gray20",
"+ c #434343",
"@ c gray30",
"# c gray32",
"$ c #6D6D6D",
"% c #7E7E7E",
"& c #FFE879",
"* c gray70",
"= c gray80",
"- c white",
/* pixels */
"++++++++++++++++X$++++++++++++++",
"++++++++++++++++X$++++++++++++++",
"++++++++++++++++.$++++++++++++++",
"+++++++++++++++OXO++++++++++++++",
"X....X.XXXXXXXXXXXXXXXXXXXXX....",
"$$$$$$$$......$$$$$$$$$OXO$$$$$$",
"#######.OOOOO@.#########X$..####",
"####### OOOOO@ #########o.&&.###",
"####### OOOOOOO           @@@.##",
"#####..@@@@@@@@@@@@@@@@@@O@@@.##",
"XXXX.@@@@@@@@@@@@@@@@@@@@@@@@.XX",
"$$$.@@@@@@@@OOOOOOOOO@@@@@@@@.$$",
"+++.@%%%%%%O@@@@@@@@@O%%%%%%@.++",
"+++.%%****O@@@@@@@@@@@O*****=.++",
"+++.%*****O@@@@@@@@@@@O*****=.++",
"+++.%*****O@%%%%%%%%%@O*****=.++",
"+++.%*****O%%********=O*****=.++",
"XXX.%*****O%*********=O****=-.XX",
"$$$.======O%*********=O====-.$$$",
"###.***=...%*********=.OO@..####",
"###.===-.#.%*********=.OO@.#####",
"###.OOOO.#.%********=-.@@@.#####",
"####.&--.##.========-.....######",
"XXXXX...XXXX.........XXXXXXXXXXX",
"$$$$$OXO$$$$$$$$$$$$$$$$$$$$$$$$",
"######X$########################",
"######X$########################",
"######X$########################",
"#####OXO########################",
"XXXXXXXXXXXXXXXXXXXXXXXXXXXXXXXX",
"$$$$$$$$$$$$$$$OXO$$$$$$$$$$$$$$",
"++++++++++++++++X$++++++++++++++"
};
