/* XPM */
static char *result[] = {
/* columns rows colors chars-per-pixel */
"32 32 12 1 ",
"  c black",
". c gray4",
"X c #191919",
"o c gray20",
"O c #434343",
"+ c gray30",
"@ c gray32",
"# c #6D6D6D",
"$ c #7E7E7E",
"% c gray70",
"& c gray80",
"* c white",
/* pixels */
"OOOOOOOOOOOOOOOOX#OOOOOOOOOOOOOO",
"OOOOOOOOOOOOOOOOX#OOOOOOOOOOOOOO",
"OOOOOOOOOOOOOOOO.#OOOOOOOOOOOOOO",
"OOOOOOOOOOOOOOOoXoOOOOOOOOOOOOOO",
"X....X.XXXXXXXXXXXXXXXXXXXXX....",
"#######################oXo######",
"@@@@@@@@@@@@@@@@@@@@@@@@X#@@@@@@",
"@@@@@@@@                 #@@@@@@",
"@@@@@@@ +++++++++++++++++ @@@@@@",
"@@@@...+++++++++++++++++++...@@@",
"XXX.+++++++++++++++++++++++++.XX",
"###.++++++++ooooooooo++++++++.##",
"OOO.+$$$$$$o+++++++++o$$$$$$+.OO",
"OOO.$%%%%%o+++++++++++o%%%%%&.OO",
"OOO.$%%%%%o+++++++++++o%%%%%&.OO",
"OOO.$%%%%%o+$$$$$$$$$+o%%%%%&.OO",
"OOO.$%%%%%o$$%%%%%%%%&o%%%%%&.OO",
"XXX.$%%%%%o$%%%%%%%%%&o%%%%&*.XX",
"####.&&&&&o$%%%%%%%%%&o&&&&*.###",
"@@@@@......$%%%%%%%%%&......@@@@",
"@@@@@@@@@@.$%%%%%%%%%&.@X#@@@@@@",
"@@@@@@@@@@.$%%%%%%%%&*.@X#@@@@@@",
"@@@@@@@@@@@.&&&&&&&&*.@oXo@@@@@@",
"XXXXXXXXXXXX.........XXXXXXXXXXX",
"#####oXo########################",
"@@@@@@X#@@@@@@@@@@@@@@@@@@@@@@@@",
"@@@@@@X#@@@@@@@@@@@@@@@@@@@@@@@@",
"@@@@@@X#@@@@@@@@@@@@@@@@@@@@@@@@",
"@@@@@oXo@@@@@@@@@@@@@@@@@@@@@@@@",
"XXXXXXXXXXXXXXXXXXXXXXXXXXXXXXXX",
"###############oXo##############",
"OOOOOOOOOOOOOOOOX#OOOOOOOOOOOOOO"
};
